<?xml version="1.0" encoding="iso-8859-1"?>
<!-- Uploaded to: SVG Repo, www.svgrepo.com, Generator: SVG Repo Mixer Tools -->
<svg height="800px" width="800px" version="1.1" id="Layer_1" xmlns="http://www.w3.org/2000/svg" xmlns:xlink="http://www.w3.org/1999/xlink" 
	 viewBox="0 0 512 512" xml:space="preserve">
<path style="fill:#F2F2F4;" d="M371.2,256v217.6c0,21.12-17.28,38.4-38.4,38.4H179.2c-21.12,0-38.4-17.28-38.4-38.4V256
	c0-121.856,76.8-82.944,76.8-204.8V0h76.8v51.2C294.4,173.056,371.2,134.144,371.2,256z"/>
<path style="fill:#DFDFE1;" d="M294.4,51.2V0H256v512h76.8c21.12,0,38.4-17.28,38.4-38.4V256
	C371.2,134.144,294.4,173.056,294.4,51.2z"/>
<path style="fill:#E17858;" d="M140.8,256v179.2h230.4V256c0-21.48-2.394-37.949-6.326-51.2H147.126
	C143.194,218.051,140.8,234.52,140.8,256z"/>
<path style="fill:#FF4F19;" d="M364.874,204.8H256v230.4h115.2V256C371.2,234.52,368.806,218.051,364.874,204.8z"/>
<ellipse style="fill:#F2F2F4;" cx="256" cy="320" rx="38.4" ry="44.8"/>
<path style="fill:#DFDFE1;" d="M256,275.2v89.6c21.208,0,38.4-20.058,38.4-44.8C294.4,295.258,277.208,275.2,256,275.2z"/>
</svg>